<svg width="61" height="61" viewBox="0 0 61 61" fill="none" xmlns="http://www.w3.org/2000/svg">
    <path fill-rule="evenodd" clip-rule="evenodd" d="M55 30.5C55 44.031 44.031 55 30.5 55C16.969 55 6 44.031 6 30.5C6 16.969 16.969 6 30.5 6C44.031 6 55 16.969 55 30.5ZM61 30.5C61 47.3447 47.3447 61 30.5 61C13.6553 61 0 47.3447 0 30.5C0 13.6553 13.6553 0 30.5 0C47.3447 0 61 13.6553 61 30.5ZM34 16.5C34 18.433 32.433 20 30.5 20C28.567 20 27 18.433 27 16.5C27 14.567 28.567 13 30.5 13C32.433 13 34 14.567 34 16.5ZM27 29.5C27 27.567 28.567 26 30.5 26C32.433 26 34 27.567 34 29.5V44.5C34 46.433 32.433 48 30.5 48C28.567 48 27 46.433 27 44.5V29.5Z" fill="#8C959C"/>
</svg>    