<svg width="130" height="130" viewBox="0 0 130 130" fill="none" xmlns="http://www.w3.org/2000/svg">
    <path fill-rule="evenodd" clip-rule="evenodd" d="M65 0C29.1015 0 0 29.1015 0 65V130H65C100.899 130 130 100.899 130 65C130 29.1015 100.899 0 65 0ZM74.2614 31.2476C81.265 33.1693 87.4973 37.222 92.0946 42.8441L77.7381 54.5838C75.5767 51.9406 72.6467 50.0353 69.3541 49.1318C66.0615 48.2284 62.5694 48.3715 59.3618 49.5414C56.1542 50.7113 53.3899 52.8501 51.4522 55.6612C49.5144 58.4724 48.4991 61.8167 48.5469 65.2306C48.5948 68.6446 49.7034 71.9592 51.7193 74.7149C53.7351 77.4706 56.5582 79.531 59.7973 80.6105C63.0365 81.6901 66.5312 81.7353 69.7972 80.7399C73.0632 79.7445 75.9386 77.7578 78.025 75.0551L92.705 86.3877C88.2671 92.1364 82.1508 96.3623 75.2039 98.4796C68.257 100.597 60.8235 100.501 53.9336 98.2045C47.0438 95.9082 41.0389 91.5256 36.7512 85.664C32.4634 79.8025 30.1052 72.7523 30.0034 65.4906C29.9016 58.2289 32.0613 51.1154 36.183 45.1359C40.3048 39.1565 46.1845 34.6073 53.0072 32.1188C59.83 29.6303 67.2579 29.3259 74.2614 31.2476Z" fill="white"/>
</svg>    